# xmcd
#
# Track frame offsets:
#	150
#	21382
#	39189
#	63332
#	83813
#	104000
#	125253
#	148518
#	166362
#	185175
#	199578
#	223745
#	246063
#	279203
#	298575
#
# Disc length: 4303 seconds
#
# Revision: 1
# Processed by: cddbd v1.5.1PL0 Copyright (c) Steve Scherf et al.
# Submitted via: EasyCDDAExtractor 6.2.0.3
#
DISCID=dd10cd0f
DTITLE=Clapton Eric - Chronicles - The Best of
DYEAR=2000
DGENRE=
TTITLE0=Blue Eyes Blue
TTITLE1=Change the World
TTITLE2=My Father's Eyes
TTITLE3=Tears in Heaven
TTITLE4=Layla
TTITLE5=Pretending
TTITLE6=Bad Love
TTITLE7=Before You Accuse Me (take a look at yourself)
TTITLE8=It's in the Way that You Use It
TTITLE9=Forever Man
TTITLE10=Running on Faith
TTITLE11=She's Waiting
TTITLE12=River of Tears
TTITLE13=(I) Get Lost
TTITLE14=Wonderful Tonight
EXTD=
EXTT0=
EXTT1=
EXTT2=
EXTT3=
EXTT4=
EXTT5=
EXTT6=
EXTT7=
EXTT8=
EXTT9=
EXTT10=
EXTT11=
EXTT12=
EXTT13=
EXTT14=
PLAYORDER=
